<?xml version="1.0" encoding="UTF-8"?>
<svg width="24" height="24" viewBox="0 0 24 24" fill="none" xmlns="http://www.w3.org/2000/svg">
  <path d="M12 14C13.66 14 15 12.66 15 11V5C15 3.34 13.66 2 12 2C10.34 2 9 3.34 9 5V11C9 12.66 10.34 14 12 14Z" fill="#D4AF37"/>
  <path d="M17 11C17 14.53 14.39 17.44 11 17.93V21H13C13.55 21 14 21.45 14 22C14 22.55 13.55 23 13 23H11H7C6.45 23 6 22.55 6 22C6 21.45 6.45 21 7 21H9V17.93C5.61 17.44 3 14.53 3 11H5C5 13.76 7.24 16 10 16H14C16.76 16 19 13.76 19 11H17Z" fill="#D4AF37"/>
</svg> 